<?xml version="1.0" encoding="UTF-8"?>
<svg xmlns="http://www.w3.org/2000/svg" viewBox="0 0 1280 640" width="1280" height="640" font-family="Georgia, 'Times New Roman', serif">
  <defs>
    <!-- Enhanced background gradient -->
    <linearGradient id="bg" x1="0" y1="0" x2="1" y2="1">
      <stop offset="0%" stop-color="#04110f"/>
      <stop offset="40%" stop-color="#02100c"/>
      <stop offset="70%" stop-color="#010806"/>
      <stop offset="100%" stop-color="#000000"/>
    </linearGradient>
    <!-- Enhanced glow gradient -->
    <radialGradient id="glow" cx="26%" cy="42%" r="48%">
      <stop offset="0%" stop-color="#00ffcc" stop-opacity="0.22"/>
      <stop offset="40%" stop-color="#00ffcc" stop-opacity="0.08"/>
      <stop offset="100%" stop-color="#00ffcc" stop-opacity="0"/>
    </radialGradient>
    <!-- Secondary accent glow -->
    <radialGradient id="accentGlow" cx="74%" cy="38%" r="35%">
      <stop offset="0%" stop-color="#ffd700" stop-opacity="0.06"/>
      <stop offset="100%" stop-color="#ffd700" stop-opacity="0"/>
    </radialGradient>
    <!-- Shield fill gradient -->
    <linearGradient id="shieldFill" x1="0" y1="0" x2="0" y2="1">
      <stop offset="0%" stop-color="#00ffcc" stop-opacity="0.18"/>
      <stop offset="50%" stop-color="#00ffcc" stop-opacity="0.08"/>
      <stop offset="100%" stop-color="#00ffcc" stop-opacity="0.02"/>
    </linearGradient>
    <!-- Shield stroke gradient -->
    <linearGradient id="shieldStroke" x1="0" y1="0" x2="0" y2="1">
      <stop offset="0%" stop-color="#5ffff2"/>
      <stop offset="50%" stop-color="#00ffcc"/>
      <stop offset="100%" stop-color="#00c4a0"/>
    </linearGradient>
    <!-- Grid pattern -->
    <pattern id="grid" width="48" height="48" patternUnits="userSpaceOnUse">
      <path d="M48 0 L0 0 0 48" fill="none" stroke="#0c3b34" stroke-width="0.6" opacity="0.4"/>
    </pattern>
    <!-- Shield aura filter -->
    <filter id="shieldAura" x="-30%" y="-30%" width="160%" height="160%">
      <feGaussianBlur stdDeviation="8" result="blur"/>
      <feColorMatrix in="blur" type="matrix"
        values="0 0 0 0 0
                0 1 0 0 0.9
                0 0 0 0 0.85
                0 0 0 0.5 0" result="glow"/>
      <feMerge>
        <feMergeNode in="glow"/>
        <feMergeNode in="SourceGraphic"/>
      </feMerge>
    </filter>
    <!-- Gold text glow -->
    <filter id="goldGlow" x="-50%" y="-50%" width="200%" height="200%">
      <feGaussianBlur stdDeviation="3" result="blur"/>
      <feColorMatrix in="blur" type="matrix"
        values="0 0 0 0 1
                0 0 0 0 0.84
                0 0 0 0 0
                0 0 0 0.6 0" result="glow"/>
      <feMerge>
        <feMergeNode in="glow"/>
        <feMergeNode in="SourceGraphic"/>
      </feMerge>
    </filter>
    <clipPath id="sc">
      <path d="M300 250 L430 268 L430 412 C430 506 300 588 300 588 C300 588 170 506 170 412 L170 268 Z"/>
    </clipPath>
  </defs>

  <!-- Background layers -->
  <rect width="1280" height="640" fill="url(#bg)"/>
  <rect width="1280" height="640" fill="url(#grid)"/>
  <rect width="1280" height="640" fill="url(#glow)"/>
  <rect width="1280" height="640" fill="url(#accentGlow)"/>

  <!-- Shield emblem (left) with enhanced styling -->
  <g>
    <!-- Outer ambient rings -->
    <circle cx="300" cy="419" r="196" fill="none" stroke="#00ffcc" stroke-width="1" stroke-opacity="0.08"/>
    <circle cx="300" cy="419" r="170" fill="none" stroke="#00ffcc" stroke-width="0.5" stroke-opacity="0.12"/>
    <!-- Inner dashed ring -->
    <circle cx="300" cy="419" r="150" fill="none" stroke="#00ffcc" stroke-width="1.4" stroke-opacity="0.5" stroke-dasharray="10 6"/>
    <!-- Gold accent ring -->
    <circle cx="300" cy="419" r="112" fill="none" stroke="#ffd700" stroke-width="0.8" stroke-opacity="0.2" stroke-dasharray="3 22"/>

    <!-- shield body with aura -->
    <g filter="url(#shieldAura)">
      <path d="M300 250 L430 268 L430 412 C430 506 300 588 300 588 C300 588 170 506 170 412 L170 268 Z" fill="url(#shieldFill)"/>
    </g>
    <!-- shield grid overlay -->
    <g clip-path="url(#sc)" stroke="#00ffcc" stroke-width="0.5" stroke-opacity="0.12">
      <line x1="170" y1="330" x2="430" y2="330"/>
      <line x1="170" y1="380" x2="430" y2="380"/>
      <line x1="170" y1="430" x2="430" y2="430"/>
      <line x1="170" y1="480" x2="430" y2="480"/>
      <line x1="170" y1="530" x2="430" y2="530"/>
      <line x1="215" y1="250" x2="215" y2="588"/>
      <line x1="260" y1="250" x2="260" y2="588"/>
      <line x1="300" y1="250" x2="300" y2="588"/>
      <line x1="340" y1="250" x2="340" y2="588"/>
      <line x1="385" y1="250" x2="385" y2="588"/>
    </g>
    <!-- shield main stroke -->
    <path d="M300 250 L430 268 L430 412 C430 506 300 588 300 588 C300 588 170 506 170 412 L170 268 Z" fill="none" stroke="url(#shieldStroke)" stroke-width="3"/>
    <!-- inner stroke for depth -->
    <path d="M300 268 L414 284 L414 412 C414 498 300 570 300 570 C300 570 186 498 186 412 L186 284 Z" fill="none" stroke="#00ffcc" stroke-width="0.8" stroke-opacity="0.35"/>
    <!-- gold accent line -->
    <line x1="214" y1="290" x2="386" y2="290" stroke="#ffd700" stroke-width="2.5" stroke-opacity="0.9" filter="url(#goldGlow)"/>
    <!-- zero digit -->
    <text x="300" y="452" text-anchor="middle" font-size="150" font-weight="900" fill="none" stroke="#00ffcc" stroke-width="3" opacity="0.95">0</text>
    <!-- tip light -->
    <circle cx="300" cy="586" r="6" fill="#ffd700" filter="url(#goldGlow)"/>
  </g>

  <!-- Wordmark + tagline (right) with refined typography -->
  <text x="640" y="300" font-size="92" font-weight="900" fill="#ffffff" letter-spacing="14">AEGIS</text>
  <line x1="642" y1="324" x2="900" y2="324" stroke="#00ffcc" stroke-width="1.5" stroke-opacity="0.6"/>
  <text x="644" y="358" font-family="'Courier New', monospace" font-size="22" fill="#00ffcc" letter-spacing="12">Z E R O</text>
  <text x="644" y="430" font-family="'Courier New', monospace" font-size="20" fill="#cbd5e1">A state-of-the-art agentic runtime.</text>
  <text x="644" y="462" font-family="'Courier New', monospace" font-size="20" fill="#cbd5e1">Policy-governed tools. Memory that learns.</text>
  <text x="644" y="494" font-family="'Courier New', monospace" font-size="20" fill="#cbd5e1">Verification before trust.</text>

  <!-- bottom feature chips with enhanced styling -->
  <g font-family="'Courier New', monospace" font-size="16" fill="#94a3b8">
    <rect x="644" y="540" width="150" height="34" rx="6" fill="#00ffcc" fill-opacity="0.08" stroke="#00ffcc" stroke-opacity="0.5"/>
    <text x="664" y="562">async runtime</text>
    <rect x="806" y="540" width="180" height="34" rx="6" fill="#ffd700" fill-opacity="0.08" stroke="#ffd700" stroke-opacity="0.5"/>
    <text x="826" y="562">grounded verifier</text>
    <rect x="998" y="540" width="220" height="34" rx="6" fill="#00ffcc" fill-opacity="0.08" stroke="#00ffcc" stroke-opacity="0.5"/>
    <text x="1018" y="562">fail-fast degradation</text>
  </g>
</svg>
